<?xml version="1.0" encoding="UTF-8"?>
<svg xmlns="http://www.w3.org/2000/svg" version="1.1" viewBox="0 0 2682.8 216">
  <defs>
    <style>
      .cls-1 {
        fill: #ed1c24;
      }
    </style>
  </defs>
  <!-- Generator: Adobe Illustrator 28.6.0, SVG Export Plug-In . SVG Version: 1.2.0 Build 709)  -->
  <g>
    <g id="Layer_1">
      <g>
        <path class="cls-1" d="M1347,210.5c-1.7-1.5-2.3-3.4-2.3-5.7,0-64.5,0-128.9,0-193.4,0-.4,0-.8,0-1.2.3-3.2,1.5-4.4,4.7-4.4,16.1,0,32.2,0,48.2,0,1.6,0,3,.6,4.1,1.7,8.2,7.3,16.4,14.6,24.7,22,8.7,7.8,17.4,15.5,26.1,23.2,7.8,7,15.6,13.9,23.4,20.9,7.9,7.1,15.9,14.1,23.8,21.2,7.1,6.4,14.3,12.8,21.4,19.2,7.7,6.9,15.5,13.8,23.2,20.7,1.2,1.1,2.4,2.1,3.5,3.2,1.5,1.4,1.5,1.4,3.2,0,7.9-6.5,15.7-13,23.6-19.6,29-24.1,58.1-48.2,87.1-72.3,15.2-12.6,30.3-25.2,45.5-37.8,1.9-1.6,3.9-2.4,6.5-2.4,13.7.1,27.4,0,41,0,4.5,0,5.7,1.2,5.7,5.6,0,64.5,0,128.9,0,193.4,0,2.3-.5,4.2-2.3,5.7h-120.5c-2-1.5-2.3-3.5-2.3-5.8,0-24.8,0-49.7,0-74.5,0-.9,0-1.8-.1-3.1-1,.8-1.7,1.4-2.4,1.9-11.8,9.9-23.6,19.8-35.3,29.8-19.5,16.4-38.9,32.8-58.4,49.2-1.6,1.3-3.2,2-5.2,2.1-.7,0-1.3.3-2,.5-7.2,0-14.4,0-21.6,0-1.3-.9-2.6-1.8-3.9-2.7-16.6-12.5-33.1-25.1-49.7-37.6-18.3-13.8-36.6-27.6-54.9-41.5-.7-.5-1.4-.9-2.5-1.7v3.4c0,24.8,0,49.7,0,74.5,0,2.2-.2,4.3-2.4,5.6h-50.4Z"/>
        <path class="cls-1" d="M1785.2,210.5c-3-2.7-3-4,.2-6.9,8-7.1,16-14.1,24.1-21.2,10-8.7,20-17.4,29.9-26.1,10-8.8,20.1-17.5,30.1-26.3,11.9-10.5,23.9-20.9,35.8-31.4,12.4-10.9,24.9-21.7,37.3-32.6,10.6-9.2,21.1-18.5,31.7-27.8,11.7-10.3,23.4-20.5,35.1-30.8,1.4-1.3,3-1.8,5-1.8,11.2,0,22.4,0,33.6,0,2.2,0,4,.6,5.7,2.1,4.6,4.1,9.2,8.2,13.8,12.3,8.3,7.4,16.6,14.7,24.9,22.1,7.6,6.8,15.3,13.6,22.9,20.4,6.9,6.1,13.7,12.2,20.6,18.3,7.7,6.8,15.4,13.7,23.1,20.5,6.7,6,13.5,12,20.2,18,7.6,6.8,15.3,13.6,22.9,20.3,6.9,6.1,13.7,12.2,20.6,18.3,7.7,6.8,15.4,13.7,23.1,20.5,6.8,6,13.6,12.1,20.4,18.1,2.7,2.4,5.4,4.8,8,7.2.5.5,1.1,1,1.4,1.6,1.1,1.7.7,3.4-.9,4.5-.3.2-.6.4-.9.6h-147.3c-.6-.6-1.3-1.1-1.9-1.7-11.1-9.7-22.3-19.4-33.4-29-18.4-16-36.9-32-55.3-48-19.5-17-39-33.9-58.6-50.8-1.2-1-2.4-2-3.7-3.1-36.4,32.4-72.5,64.6-108.7,96.8,0,.2.1.4.2.6h3c53.4,0,106.9,0,160.3,0,1.3,0,2.5.1,3.8.3,3.6.5,4.4,1.4,4.4,4.9,0,8.1,0,16.1,0,24.2,0,2.4-.4,4.4-2.3,5.9h-249.1Z"/>
        <path class="cls-1" d="M2289.2,210.5c0,0,0-.2-.1-.2-2.9-2-3-4.1-.3-6.5,11.4-10.1,22.8-20.3,34.2-30.4,10.5-9.3,21-18.6,31.5-27.9,8.4-7.4,16.7-14.9,25-22.3,5.4-4.8,10.9-9.6,16.3-14.5.2-.2.4-.4.8-.8-.4-.5-.8-1-1.2-1.4-8.7-7.7-17.5-15.4-26.2-23.1-8.9-7.9-17.8-15.8-26.7-23.7-8.1-7.1-16.2-14.2-24.2-21.4-8.9-7.9-17.8-15.8-26.7-23.7-1.1-1-2.2-1.9-3.3-2.8-1-1-1.8-2.1-1.4-3.6.4-1.5,1.7-2,3.1-2.3.7-.2,1.4-.1,2.1-.1,47.5,0,95,0,142.5,0,2.2,0,3.9.8,5.4,2.1,4.6,4.1,9.3,8.3,13.9,12.4,7.1,6.3,14.2,12.7,21.2,19,7.1,6.3,14.2,12.6,21.3,18.9,8.6,7.6,17.2,15.3,25.7,22.9.9.8,1.9,1.7,3,2.7,2.3-2,4.4-3.9,6.5-5.8,8.6-7.7,17.3-15.4,25.9-23.1,7.7-6.8,15.4-13.7,23-20.6,7.9-7.1,15.9-14.1,23.8-21.2,1.9-1.7,3.8-3.4,5.7-5.1,1.7-1.6,3.6-2.4,6-2.4,14,0,28,0,42,0,2.1,0,4,.3,5.4,2v2.4c-1.1,1.1-2,2.2-3.2,3.2-8.9,7.9-17.8,15.8-26.6,23.7-8.1,7.2-16.2,14.4-24.4,21.6-8.2,7.3-16.5,14.6-24.7,21.9-7.5,6.6-14.9,13.2-22.4,19.8-3,2.6-5.9,5.3-9.1,8.1,1.7,1.6,3.3,3,4.9,4.4,6.9,6.2,13.8,12.3,20.7,18.5,9,8,18,16,27,24,8.2,7.3,16.4,14.6,24.7,21.9,10,8.9,20,17.8,30,26.7,3.1,2.8,3.1,3.9.2,6.6-49.3,0-98.6,0-147.8,0-.9-.7-1.7-1.4-2.6-2.1-2.3-2-4.5-4-6.8-6-9.1-8.1-18.3-16.2-27.4-24.3-8.3-7.4-16.6-14.7-24.8-22.1-6.9-6.1-13.8-12.3-20.8-18.4-1.9-1.7-3.8-3.3-5.7-5-.9.7-1.6,1.2-2.2,1.8-7.4,6.6-14.8,13.1-22.2,19.7-10.2,9-20.4,18.1-30.7,27.1-8.2,7.2-16.4,14.5-24.6,21.7-2.8,2.5-5.6,5.1-8.4,7.7-15.8,0-31.7,0-47.5,0Z"/>
        <path class="cls-1" d="M437.5,210.5c-1.8-.3-3.5-.7-5.3-1-9.4-1.3-18.4-3.8-27-7.8-10.2-4.7-19.2-11.2-27-19.1-14.1-14.4-22.9-31.6-26.6-51.5-2-10.9-2.4-21.9-1.7-32.9.9-14.2,4.2-27.9,10.7-40.7,4.1-8.1,9.2-15.5,15.4-22.2,7.6-8.4,16.5-15,26.7-20,9.1-4.5,18.8-7.2,28.8-8.6,5.9-.8,11.8-1,17.7-1,70.4,0,140.8,0,211.1,0,.6,0,1.1,0,1.7,0,4.8,0,5.9,1.1,5.9,6,0,7.8,0,15.7,0,23.5,0,.5,0,1,0,1.4-.3,2.8-1.2,3.8-4,4.1-1.6.2-3.2.3-4.8.3-47.7,0-95.3,0-143,0-5,0-9.9.9-14.5,2.7-7.5,2.9-12.4,8.3-14.8,15.9-1.5,4.8-2.3,9.8-2.7,14.8-.9,10.6-.4,21.2-.4,31.8,0,8.2-.1,16.5.2,24.7.3,8.3,1.3,16.5,4.3,24.4,4.8,12.6,15.2,19.9,28.7,19.9,47.6,0,95.2,0,142.8,0,1.6,0,3.2.1,4.8.4,2.1.3,2.9,1,3.3,3.2.2.8.3,1.6.3,2.4,0,7.9,0,15.8,0,23.7,0,2.3-.5,4.2-2.3,5.7h-228Z"/>
        <path class="cls-1" d="M1092.2,210.5c-1.8-.3-3.5-.7-5.3-.9-17.8-2.3-33.7-9-47.4-20.6-12.6-10.6-22.1-23.6-28.1-39-3.4-8.7-5.4-17.7-6.5-26.9-.8-6.8-1-13.7-.7-20.5.9-20.2,5.8-39.2,17.5-56.1,13.8-20,32.4-32.9,56.3-38.1,7.7-1.7,15.4-2.5,23.3-2.5,71.6,0,143.2,0,214.8,0,1.2,0,2.4,0,3.6.3,1.8.5,2.5,1.5,2.5,3.3,0,9.3,0,18.5,0,27.8,0,1.9-1,3.1-3,3.4-1.6.3-3.2.4-4.8.4-48,0-96,0-144,0-5,0-9.9.9-14.5,2.7-7.9,3.1-12.8,9-15.1,17.1-1.5,5.4-2.4,10.9-2.5,16.5-.2,16.4-.5,32.7-.3,49.1.1,9.4,1,18.8,4.1,27.8,4.6,13.3,15.2,20.9,29.2,20.9,47.7,0,95.3,0,143,0,1.5,0,3,.2,4.5.4,2.3.3,3.2,1.4,3.2,3.7,0,9.1,0,18.2,0,27.3,0,1.9-1.2,2.8-2.3,3.9h-227.5Z"/>
        <path class="cls-1" d="M19.9,8.2c1.7-2.1,4-2.5,6.6-2.5,100.8,0,201.6,0,302.4,0,1,0,1.9,0,2.9,0,2.3.3,3.4,1.6,3.4,3.9,0,9.1,0,18.2,0,27.3,0,2.3-1,3.4-3.2,3.7-1.7.2-3.3.4-5,.4-28.3,0-56.6,0-85,0-1,0-2,0-3.4,0,0,1.2,0,2.2,0,3.2,0,36.4,0,72.7,0,109.1,0,17.3,0,34.5,0,51.8,0,2.2-.3,4.1-2.3,5.3h-120c-2-1.1-2.4-2.7-2.4-4.9,0-30.5,0-61,0-91.6,0-23.2,0-46.5,0-69.7,0-1,0-2,0-3.2h-3.4c-27.3,0-54.5,0-81.8,0-3.1,0-6.2-.1-8.8-2.2V8.2Z"/>
        <path class="cls-1" d="M774.4,210.5c-1.8-.3-3.7-.7-5.5-1-18.5-2.6-34.9-9.8-48.9-22.3-8.8-7.8-15.9-16.8-21.2-27.2-4.3-8.4-7.1-17.2-8.7-26.5-1.1-6.8-1.6-13.6-1.6-20.5,0-34,0-67.9,0-101.9,0-4.5,1.6-5.4,5.5-5.4,40.1,0,80.1,0,120.2,0,.6,0,1.3,0,1.9,0,2.3.2,3.6,1.6,3.7,3.9,0,.7,0,1.4,0,2.2,0,40.3,0,80.5,0,120.8,0,7.3.7,14.6,2.5,21.8,2.6,10.3,9.2,16.7,19.5,19.3,3.7.9,7.5,1.4,11.4,1.4,42.5,0,84.9,0,127.4,0,1.6,0,3.2.1,4.8.4,2.3.3,3.4,1.6,3.4,3.9,0,9,0,18.1,0,27.1,0,1.9-1.3,2.7-2.3,3.9h-212.1Z"/>
        <path class="cls-1" d="M586.1,116.9c-24.9,0-49.7,0-74.6,0-1.3,0-2.7-.1-4-.5-1.7-.4-2.5-1.5-2.5-3.3,0-9.3,0-18.7,0-28,0-1.8.8-2.9,2.5-3.3,1.2-.3,2.5-.5,3.8-.5,36.2,0,72.5,0,108.7,0,13.6,0,27.2,0,40.8,0,.6,0,1.1,0,1.7,0,4,.1,5.4,1.5,5.4,5.6,0,8.1,0,16.3,0,24.4,0,.8-.2,1.6-.3,2.4-.2,1.7-1.3,2.6-2.8,2.9-1.2.2-2.4.4-3.6.4-25,0-50.1,0-75.1,0Z"/>
        <path class="cls-1" d="M1240.8,81.2c24.9,0,49.9,0,74.8,0,1.2,0,2.4,0,3.5.4,1.8.4,2.7,1.5,2.7,3.4,0,9.3,0,18.7,0,28,0,1.8-.8,2.9-2.5,3.3-1.2.3-2.5.5-3.8.5-38.5,0-77.1,0-115.6,0s-22.9,0-34.3,0c-5.6,0-6.7-1.4-6.7-6.5,0-7.6,0-15.2,0-22.8,0-.8,0-1.6.1-2.4.4-2.4,1.1-3.2,3.6-3.7.9-.2,1.9-.2,2.9-.2,25,0,50.1,0,75.1,0Z"/>
      </g>
    </g>
  </g>
</svg>